<svg viewBox="0 0 266 270" width="266px" height="270px" xmlns="http://www.w3.org/2000/svg"><g fill="#000" fill-rule="evenodd" opacity=".2"><path d="m71.16 94h11.172v-11.476h7.144v-9.5h-7.144v-32.604h-9.88l-29.18 33.82 1.9 8.284h25.992v11.476m-14.14-20.976l14.14-16.568v16.568h-14.14"/><path d="m200.58 94.91c14.212 0 23.712-12.08 23.712-27.512v-.152c0-15.428-9.5-27.36-23.56-27.36-14.14 0-23.712 12.08-23.712 27.512v.152c0 15.428 9.348 27.36 23.56 27.36m.152-10.564c-7.07 0-11.704-7.22-11.704-16.948v-.152c0-9.728 4.56-16.796 11.552-16.796 6.992 0 11.704 7.296 11.704 16.948v.152c0 9.652-4.484 16.796-11.552 16.796"/><path d="m65.58 229.91c14.212 0 23.712-12.08 23.712-27.512v-.152c0-15.428-9.5-27.36-23.56-27.36-14.14 0-23.712 12.08-23.712 27.512v.152c0 15.428 9.348 27.36 23.56 27.36m.152-10.564c-7.07 0-11.704-7.22-11.704-16.948v-.152c0-9.728 4.56-16.796 11.552-16.796 6.992 0 11.704 7.296 11.704 16.948v.152c0 9.652-4.484 16.796-11.552 16.796"/><path d="m204.16 229h11.172v-11.476h7.144v-9.5h-7.144v-32.604h-9.88l-29.18 33.82 1.9 8.284h25.992v11.476m-14.14-20.976l14.14-16.568v16.568h-14.14"/></g></svg>
