<svg viewBox="0 0 400 270" width="400px" height="270px" xmlns="http://www.w3.org/2000/svg"><g fill="#000" fill-rule="evenodd" opacity=".2"><path d="m66.1 94.91c12.236 0 20.22-7.144 20.22-18.392v-.152c0-12.01-8.284-17.02-18.62-17.02-2.964 0-4.864.38-6.992.912l.608-9.196h22.648v-10.26h-32.68l-1.52 26.22 6.764 4.484c2.508-1.064 5.548-1.976 8.892-1.976 5.548 0 9.424 2.66 9.424 7.22v.152c0 4.712-3.42 7.372-8.892 7.372-4.712 0-8.664-2.128-12.692-5.776l-7.07 8.436c5.168 4.94 11.4 7.98 19.912 7.98"/><path d="m200.58 94.91c14.212 0 23.712-12.08 23.712-27.512v-.152c0-15.428-9.5-27.36-23.56-27.36-14.14 0-23.712 12.08-23.712 27.512v.152c0 15.428 9.348 27.36 23.56 27.36m.152-10.564c-7.07 0-11.704-7.22-11.704-16.948v-.152c0-9.728 4.56-16.796 11.552-16.796 6.992 0 11.704 7.296 11.704 16.948v.152c0 9.652-4.484 16.796-11.552 16.796"/><path d="m67.58 229.91c14.212 0 23.712-12.08 23.712-27.512v-.152c0-15.428-9.5-27.36-23.56-27.36-14.14 0-23.712 12.08-23.712 27.512v.152c0 15.428 9.348 27.36 23.56 27.36m.152-10.564c-7.07 0-11.704-7.22-11.704-16.948v-.152c0-9.728 4.56-16.796 11.552-16.796 6.992 0 11.704 7.296 11.704 16.948v.152c0 9.652-4.484 16.796-11.552 16.796"/><path d="m331.58 229.91c14.212 0 23.712-12.08 23.712-27.512v-.152c0-15.428-9.5-27.36-23.56-27.36-14.14 0-23.712 12.08-23.712 27.512v.152c0 15.428 9.348 27.36 23.56 27.36m.152-10.564c-7.07 0-11.704-7.22-11.704-16.948v-.152c0-9.728 4.56-16.796 11.552-16.796 6.992 0 11.704 7.296 11.704 16.948v.152c0 9.652-4.484 16.796-11.552 16.796"/><path d="m332.58 94.91c14.212 0 23.712-12.08 23.712-27.512v-.152c0-15.428-9.5-27.36-23.56-27.36-14.14 0-23.712 12.08-23.712 27.512v.152c0 15.428 9.348 27.36 23.56 27.36m.152-10.564c-7.07 0-11.704-7.22-11.704-16.948v-.152c0-9.728 4.56-16.796 11.552-16.796 6.992 0 11.704 7.296 11.704 16.948v.152c0 9.652-4.484 16.796-11.552 16.796"/><path d="m197.1 229.91c12.236 0 20.22-7.144 20.22-18.392v-.152c0-12.01-8.284-17.02-18.62-17.02-2.964 0-4.864.38-6.992.912l.608-9.196h22.648v-10.26h-32.68l-1.52 26.22 6.764 4.484c2.508-1.064 5.548-1.976 8.892-1.976 5.548 0 9.424 2.66 9.424 7.22v.152c0 4.712-3.42 7.372-8.892 7.372-4.712 0-8.664-2.128-12.692-5.776l-7.07 8.436c5.168 4.94 11.4 7.98 19.912 7.98"/></g></svg>
