<svg viewBox="0 0 96 96" xmlns="http://www.w3.org/2000/svg"><g fill="none" fill-rule="evenodd"><path d="m0 0h96v96h-96v-96m11.239 63.57l8.256-4.997c1.593 2.824 3.042 5.213 6.517 5.213 3.331 0 5.432-1.303 5.432-6.372v-34.472h10.138v34.615c0 10.501-6.155 15.28-15.14 15.28-8.11 0-12.818-4.2-15.208-9.27m35.85-1.085l8.255-4.78c2.173 3.549 4.997 6.156 9.994 6.156 4.201 0 6.88-2.1 6.88-4.997 0-3.476-2.752-4.707-7.387-6.734l-2.534-1.087c-7.315-3.113-12.167-7.02-12.167-15.28 0-7.604 5.793-13.398 14.846-13.398 6.445 0 11.08 2.245 14.411 8.111l-7.894 5.069c-1.738-3.114-3.621-4.345-6.517-4.345-2.969 0-4.852 1.883-4.852 4.345 0 3.042 1.883 4.273 6.228 6.156l2.534 1.086c8.618 3.694 13.47 7.459 13.47 15.932 0 9.125-7.169 14.12-16.801 14.12-9.414 0-15.498-4.49-18.466-10.356" fill="#000"/></g></svg>