<svg viewBox="0 0 215 150" xmlns="http://www.w3.org/2000/svg"><g fill="none" fill-rule="evenodd" transform="translate(-1360-267)"><rect fill="#fbdc72" x="1419.51" y="276" width="96" height="96" rx="6"/><g transform="translate(1431.01 298)" fill="#000"><path d="m.239 41.573l8.256-4.997c1.593 2.824 3.042 5.213 6.517 5.213 3.331 0 5.432-1.303 5.432-6.372v-34.472h10.138v34.615c0 10.501-6.155 15.28-15.14 15.28-8.11 0-12.818-4.2-15.208-9.27"/><path d="m36.09 40.487l8.255-4.78c2.173 3.549 4.997 6.156 9.994 6.156 4.201 0 6.88-2.1 6.88-4.997 0-3.476-2.752-4.707-7.387-6.734l-2.534-1.087c-7.315-3.113-12.167-7.02-12.167-15.28 0-7.604 5.793-13.398 14.846-13.398 6.445 0 11.08 2.245 14.411 8.111l-7.894 5.069c-1.738-3.114-3.621-4.345-6.517-4.345-2.969 0-4.852 1.883-4.852 4.345 0 3.042 1.883 4.273 6.228 6.156l2.534 1.086c8.618 3.694 13.47 7.459 13.47 15.932 0 9.125-7.169 14.12-16.801 14.12-9.414 0-15.498-4.49-18.466-10.356"/></g><path d="m1420.08 398.77c0 0-.66.606-1.453 1.38 0 0-8.547 7.354-5.547 12.354 3 5 19-6.596 21.918-10.207 3.741-4.632 4.341-4.877 4.341-4.877.81-.737.715-.845-.159-.179 0 0-3.468 1.758-3.468 5.973 0 3.934 4.099 6.622 9.263 3.582 6.06-3.567 3.59-8.736 2.557-9.877-2.904-3.208 3.01-.564 7.121-2.328 4.115-1.764 16.836-10.408 13.501-8.722-3.335 1.687-8.22 6.338-8.22 13.157 0 4.782 11.7-1.558 14.775-10.479 1.054-3.058-5.356 5.059-3.805 9.143 1.599 4.209 24.606-17.433 23.931-16.362-7.695 12.218-5.452 12.935-.209 10.823 11.463-4.618 34.617-33.3 27.369-36.472-5.429-2.378-13.266 29.529-13.266 33.987 0 3.508 1.248-13.954 5.243-12.81 9.737 1.581-.194 10.05 8.793 8.319 17.407-3.358 44.19-22.509 44.19-22.509" stroke="#000" stroke-width="4" stroke-linecap="round" stroke-linejoin="round" transform="matrix(.99255.12187-.12187.99255 57.981-178.68)"/></g></svg>