<svg width="14px" height="14px" viewBox="0 0 14 14" xmlns="http://www.w3.org/2000/svg"><g fill="none" fill-rule="evenodd"><path d="m13.803 13.202c.84-.978 1.346-2.247 1.346-3.628 0-3.079-2.496-5.575-5.575-5.575-3.079 0-5.575 2.496-5.575 5.575 0 3.079 2.496 5.575 5.575 5.575 1.381 0 2.65-.506 3.628-1.346l.232.918 3.288 3.28 1.278-1.278-3.28-3.288-.918-.232m-4.228.232c-2.136 0-3.859-1.724-3.859-3.859 0-2.136 1.724-3.859 3.859-3.859 2.136 0 3.859 1.724 3.859 3.859 0 2.136-1.724 3.859-3.859 3.859" fill="#cdd0d2" transform="translate(-4-4)"/></g></svg>
