<svg xmlns="http://www.w3.org/2000/svg" xmlns:xlink="http://www.w3.org/1999/xlink" width="128" height="152" viewBox="0 0 128 152">
  <defs>
    <path id="jess-a" d="M3.36891296,92.3909775 C3.5037745,125.367564 31.3516102,152.06015 65.6842105,152.06015 C100.016811,152.06015 127.864647,125.367564 127.999508,92.3909775 L128,0 L0,0 L0,92.3909774 L3.36887778,92.3909774 L3.36891296,92.3909775 Z"/>
  </defs>
  <g fill="none" fill-rule="evenodd">
    <mask id="jess-b" fill="#fff">
      <use xlink:href="#jess-a"/>
    </mask>
    <ellipse cx="65.684" cy="92.15" fill="#FAE0DF" mask="url(#jess-b)" rx="62.316" ry="59.91"/>
    <path fill="#1D143E" stroke="#1D143E" stroke-linecap="round" stroke-linejoin="round" d="M52.0556631,122.46872 C57.4055601,121.734473 57.0080154,116.997638 62.4295082,116.699233 C67.851001,116.400827 64.7139773,119.965146 76.2738623,118.872792 C83.9804523,118.144556 87.8337473,116.210098 87.8337473,113.069416 C97.8879237,114.413026 104.349125,111.921293 107.21735,105.594216 C107.233458,105.558685 107.328831,105.49407 107.503469,105.400372 C110.873768,104.70855 114.789122,103.508703 119.338346,101.696124 C110.864598,100.769743 106.906328,95.5428826 107.463537,86.0155441 C107.745824,81.1889203 102.757434,67.0787412 104.277017,52.764426 C81.5639348,33.984132 63.6760652,24.8500418 50.6134085,25.3621554 C31.0194236,26.1303258 17.944929,44.9712938 18.6044718,61.6614291 C15.8956118,64.7395161 11.8406617,66.5670239 12.0369424,76.8699998 C12.3304953,92.2788866 29.089924,98.3537967 29.111205,102.966321 C29.132486,107.578846 22.0277551,111.950978 17.944929,110.553073 C13.8621028,109.155167 20.2689415,114.875123 30.2171921,113.280647 C30.8662727,113.176614 31.4865466,113.056218 32.0780138,112.919458 C36.9369764,120.504078 43.5419969,123.637179 52.0556631,122.46872 Z" mask="url(#jess-b)"/>
    <path fill="#49C6A3" stroke="#1D143E" stroke-linecap="round" stroke-linejoin="round" d="M115.007519,146.382901 C110.192122,137.551949 105.316206,130.875175 100.379769,126.352579 C92.9751129,119.568685 55.7751318,119.764122 48.343642,122.792236 C40.9121522,125.82035 39.1777865,132.652631 35.6090226,146.382901 C45.496409,151.771744 55.3480261,154.466165 65.1638737,154.466165 C72.9921363,154.466165 89.6066847,151.771744 115.007519,146.382901 Z" mask="url(#jess-b)"/>
    <path fill="#DAA293" stroke="#1D143E" stroke-linecap="round" stroke-linejoin="round" d="M62.6458396,107.33422 C62.942044,114.027049 62.942044,118.360553 62.6458396,120.334734 C61.3828306,120.887554 60.1318346,121.163964 58.8928515,121.163964 C57.9201288,121.163964 55.7714548,123.818712 58.8928515,126.040883 C59.7916463,126.68075 62.0062196,127.052117 63.7281623,127.518797 C66.9921276,126.534306 78.2113743,127.518797 84.6917293,121.645167 C84.6917293,121.645167 84.0609315,121.36751 82.7993358,120.812195 C81.8034384,113.742596 81.5544641,106.674872 82.0524128,99.6090226" mask="url(#jess-b)"/>
    <path fill="#DAA293" stroke="#1D143E" stroke-linecap="round" stroke-linejoin="round" d="M87.0977444,93.2251726 C81.5116602,102.61862 70.5049545,107.626435 54.0776273,108.248617 C37.6503,108.8708 29.4088854,96.3314791 29.3533835,70.6306552 C43.6793751,46.5625128 65.0641979,57.4087551 72.1550945,41.8646617 C79.1785586,47.2602386 81.5384568,53.9605439 79.1785586,62.0107597 C75.6387114,74.0860834 89.0673476,70.2610936 89.1862709,78.6961038 C89.2975571,86.5894211 85.9152408,86.1605537 87.0175308,93.4225591" mask="url(#jess-b)"/>
    <path stroke="#1D143E" stroke-linecap="round" stroke-linejoin="round" d="M43.3082707,89.9849624 C47.9032953,95.1935119 53.9985334,95.7039424 61.593985,91.516254" mask="url(#jess-b)"/>
    <ellipse cx="38.256" cy="74.105" fill="#1D143E" stroke="#1D143E" stroke-linecap="round" stroke-linejoin="round" mask="url(#jess-b)" rx="2.647" ry="3.85"/>
    <ellipse cx="66.647" cy="74.105" fill="#1D143E" stroke="#1D143E" stroke-linecap="round" stroke-linejoin="round" mask="url(#jess-b)" rx="2.647" ry="3.85"/>
    <path stroke="#1D143E" stroke-linecap="round" stroke-linejoin="round" d="M42.3458647 64.645845C37.5971727 63.3842414 33.5871476 63.9709647 30.3157895 66.406015M62.556391 64.5076526C67.2035036 63.2974409 70.8927267 64.2510304 73.6240602 67.3684211" mask="url(#jess-b)"/>
    <path stroke="#1D143E" stroke-linecap="round" stroke-linejoin="round" d="M51.4887218,75.5488722 C50.0645218,78.4476964 46.3164096,79.6280143 46.2001844,82.1683492 C46.122701,83.8619058 47.0041239,84.8634335 48.8444531,85.1729323" mask="url(#jess-b)" transform="rotate(-20 48.842 80.36)"/>
    <path fill="#129E8E" stroke="#1D143E" stroke-linecap="round" stroke-linejoin="round" d="M58.2899813,121.090036 C56.0358835,120.440399 54.0979581,120.818158 52.4762053,122.223314 C52.2303409,124.867468 53.792354,127.755437 57.1622446,130.887218 C57.1622446,129.271084 58.2899813,124.677546 63.518797,128.189061 C63.518797,125.508155 57.1622446,128.222096 58.2899813,121.090036 Z" mask="url(#jess-b)"/>
    <path fill="#30A08E" stroke="#1D143E" stroke-linecap="round" stroke-linejoin="round" d="M63.518797,128.17696 C64.2583712,127.584447 70.4789277,124.525432 70.1607328,132.3213 C77.1838925,132.573199 88.5953443,127.791849 89.9849624,122.506046 C87.600657,121.358606 85.6689093,121.005657 84.1897192,121.447201 C80.6804401,128.17696 63.7815873,125.759293 63.518797,128.17696 Z" mask="url(#jess-b)"/>
    <path fill="#FFD549" stroke="#1D143E" stroke-linecap="round" stroke-linejoin="round" d="M99.1278195 26.5177997C100.509368 25.674599 101.893908 25.8321551 103.281439 26.9904683 104.66897 28.1487814 104.789465 29.5780238 103.642924 31.2781955M18.7669173 61.593985C24.7885189 41.3834586 35.7696176 31.2781955 51.7102136 31.2781955 72.4769458 31.2781955 91.6246511 48.7218949 96.818051 59.2145765 96.9618358 57.8826681 96.6155992 56.2021346 96.3721584 54.4248781 92.493614 26.1092926 44.5145839-14.136103 14.3446913 6.74893752-5.54425395 20.5170152-3.84333503 38.6903223 18.223966 61.5147932" mask="url(#jess-b)"/>
    <path fill="#FFD549" stroke="#1D143E" stroke-linecap="round" stroke-linejoin="round" d="M77.5001606,22.1945435 C87.6609308,32.1576242 94.9560429,44.0864274 96.3721584,54.4248781 C98.9578546,73.3019351 102.282423,81.2671461 106.345865,78.3205113 C111.139676,71.904339 116.228823,51.7599869 106.883644,36.4473367 C99.9662371,25.112739 90.323318,20.2915948 77.9548872,21.983904" mask="url(#jess-b)"/>
  </g>
</svg>
